<mxfile host="app.diagrams.net" modified="2023-04-03T12:41:28.171Z" agent="Mozilla/5.0 (Windows NT 10.0; Win64; x64) AppleWebKit/537.36 (KHTML, like Gecko) Chrome/111.0.0.0 Safari/537.36" etag="gv0-5J4T40nH9eB5tMry" version="21.1.2" type="device">
  <diagram name="Страница 1" id="Gl3Xs8ZEaodNLXXPuJh-">
    <mxGraphModel dx="1843" dy="784" grid="1" gridSize="10" guides="1" tooltips="1" connect="1" arrows="1" fold="1" page="1" pageScale="1" pageWidth="827" pageHeight="1169" math="0" shadow="0">
      <root>
        <mxCell id="0" />
        <mxCell id="1" parent="0" />
        <mxCell id="LeR2Eh71gVFdpT3h_GI2-19" value="" style="shape=table;startSize=0;container=1;collapsible=0;childLayout=tableLayout;" vertex="1" parent="1">
          <mxGeometry x="60" y="40" width="660" height="850" as="geometry" />
        </mxCell>
        <mxCell id="LeR2Eh71gVFdpT3h_GI2-20" value="" style="shape=tableRow;horizontal=0;startSize=0;swimlaneHead=0;swimlaneBody=0;strokeColor=inherit;top=0;left=0;bottom=0;right=0;collapsible=0;dropTarget=0;fillColor=none;points=[[0,0.5],[1,0.5]];portConstraint=eastwest;" vertex="1" parent="LeR2Eh71gVFdpT3h_GI2-19">
          <mxGeometry width="660" height="53" as="geometry" />
        </mxCell>
        <mxCell id="LeR2Eh71gVFdpT3h_GI2-21" value="Клиент" style="shape=partialRectangle;html=1;whiteSpace=wrap;connectable=0;strokeColor=inherit;overflow=hidden;fillColor=none;top=0;left=0;bottom=0;right=0;pointerEvents=1;" vertex="1" parent="LeR2Eh71gVFdpT3h_GI2-20">
          <mxGeometry width="219" height="53" as="geometry">
            <mxRectangle width="219" height="53" as="alternateBounds" />
          </mxGeometry>
        </mxCell>
        <mxCell id="LeR2Eh71gVFdpT3h_GI2-22" value="Приложение" style="shape=partialRectangle;html=1;whiteSpace=wrap;connectable=0;strokeColor=inherit;overflow=hidden;fillColor=none;top=0;left=0;bottom=0;right=0;pointerEvents=1;" vertex="1" parent="LeR2Eh71gVFdpT3h_GI2-20">
          <mxGeometry x="219" width="222" height="53" as="geometry">
            <mxRectangle width="222" height="53" as="alternateBounds" />
          </mxGeometry>
        </mxCell>
        <mxCell id="LeR2Eh71gVFdpT3h_GI2-23" value="Сотрудник" style="shape=partialRectangle;html=1;whiteSpace=wrap;connectable=0;strokeColor=inherit;overflow=hidden;fillColor=none;top=0;left=0;bottom=0;right=0;pointerEvents=1;" vertex="1" parent="LeR2Eh71gVFdpT3h_GI2-20">
          <mxGeometry x="441" width="219" height="53" as="geometry">
            <mxRectangle width="219" height="53" as="alternateBounds" />
          </mxGeometry>
        </mxCell>
        <mxCell id="LeR2Eh71gVFdpT3h_GI2-24" value="" style="shape=tableRow;horizontal=0;startSize=0;swimlaneHead=0;swimlaneBody=0;strokeColor=inherit;top=0;left=0;bottom=0;right=0;collapsible=0;dropTarget=0;fillColor=none;points=[[0,0.5],[1,0.5]];portConstraint=eastwest;" vertex="1" parent="LeR2Eh71gVFdpT3h_GI2-19">
          <mxGeometry y="53" width="660" height="797" as="geometry" />
        </mxCell>
        <mxCell id="LeR2Eh71gVFdpT3h_GI2-25" value="" style="shape=partialRectangle;html=1;whiteSpace=wrap;connectable=0;strokeColor=inherit;overflow=hidden;fillColor=none;top=0;left=0;bottom=0;right=0;pointerEvents=1;" vertex="1" parent="LeR2Eh71gVFdpT3h_GI2-24">
          <mxGeometry width="219" height="797" as="geometry">
            <mxRectangle width="219" height="797" as="alternateBounds" />
          </mxGeometry>
        </mxCell>
        <mxCell id="LeR2Eh71gVFdpT3h_GI2-26" value="" style="shape=partialRectangle;html=1;whiteSpace=wrap;connectable=0;strokeColor=inherit;overflow=hidden;fillColor=none;top=0;left=0;bottom=0;right=0;pointerEvents=1;" vertex="1" parent="LeR2Eh71gVFdpT3h_GI2-24">
          <mxGeometry x="219" width="222" height="797" as="geometry">
            <mxRectangle width="222" height="797" as="alternateBounds" />
          </mxGeometry>
        </mxCell>
        <mxCell id="LeR2Eh71gVFdpT3h_GI2-27" value="" style="shape=partialRectangle;html=1;whiteSpace=wrap;connectable=0;strokeColor=inherit;overflow=hidden;fillColor=none;top=0;left=0;bottom=0;right=0;pointerEvents=1;" vertex="1" parent="LeR2Eh71gVFdpT3h_GI2-24">
          <mxGeometry x="441" width="219" height="797" as="geometry">
            <mxRectangle width="219" height="797" as="alternateBounds" />
          </mxGeometry>
        </mxCell>
        <mxCell id="LeR2Eh71gVFdpT3h_GI2-28" value="" style="ellipse;html=1;shape=startState;fillColor=#000000;strokeColor=#ff0000;" vertex="1" parent="1">
          <mxGeometry x="150" y="110" width="30" height="30" as="geometry" />
        </mxCell>
        <mxCell id="LeR2Eh71gVFdpT3h_GI2-29" value="" style="edgeStyle=orthogonalEdgeStyle;html=1;verticalAlign=bottom;endArrow=open;endSize=8;strokeColor=#ff0000;rounded=0;entryX=0.5;entryY=0;entryDx=0;entryDy=0;" edge="1" source="LeR2Eh71gVFdpT3h_GI2-28" parent="1" target="LeR2Eh71gVFdpT3h_GI2-30">
          <mxGeometry relative="1" as="geometry">
            <mxPoint x="165" y="170" as="targetPoint" />
          </mxGeometry>
        </mxCell>
        <mxCell id="LeR2Eh71gVFdpT3h_GI2-30" value="Войти в приложение" style="rounded=1;whiteSpace=wrap;html=1;arcSize=40;fontColor=#000000;fillColor=#ffffc0;strokeColor=#ff0000;" vertex="1" parent="1">
          <mxGeometry x="105" y="170" width="120" height="30" as="geometry" />
        </mxCell>
        <mxCell id="LeR2Eh71gVFdpT3h_GI2-31" value="" style="edgeStyle=orthogonalEdgeStyle;html=1;verticalAlign=bottom;endArrow=open;endSize=8;strokeColor=#ff0000;rounded=0;entryX=0.5;entryY=0;entryDx=0;entryDy=0;" edge="1" source="LeR2Eh71gVFdpT3h_GI2-30" parent="1" target="LeR2Eh71gVFdpT3h_GI2-32">
          <mxGeometry relative="1" as="geometry">
            <mxPoint x="165" y="230" as="targetPoint" />
          </mxGeometry>
        </mxCell>
        <mxCell id="LeR2Eh71gVFdpT3h_GI2-32" value="" style="rhombus;whiteSpace=wrap;html=1;fontColor=#000000;fillColor=#ffffc0;strokeColor=#ff0000;" vertex="1" parent="1">
          <mxGeometry x="125" y="227.5" width="80" height="40" as="geometry" />
        </mxCell>
        <mxCell id="LeR2Eh71gVFdpT3h_GI2-33" value="" style="edgeStyle=orthogonalEdgeStyle;html=1;align=left;verticalAlign=bottom;endArrow=open;endSize=8;strokeColor=#ff0000;rounded=0;entryX=0;entryY=0.5;entryDx=0;entryDy=0;" edge="1" source="LeR2Eh71gVFdpT3h_GI2-32" parent="1" target="LeR2Eh71gVFdpT3h_GI2-35">
          <mxGeometry x="-1" relative="1" as="geometry">
            <mxPoint x="300" y="250" as="targetPoint" />
            <Array as="points">
              <mxPoint x="320" y="248" />
              <mxPoint x="320" y="248" />
            </Array>
          </mxGeometry>
        </mxCell>
        <mxCell id="LeR2Eh71gVFdpT3h_GI2-34" value="" style="edgeStyle=orthogonalEdgeStyle;html=1;align=left;verticalAlign=top;endArrow=open;endSize=8;strokeColor=#ff0000;rounded=0;entryX=0.25;entryY=0.5;entryDx=0;entryDy=0;entryPerimeter=0;" edge="1" source="LeR2Eh71gVFdpT3h_GI2-32" parent="1" target="LeR2Eh71gVFdpT3h_GI2-51">
          <mxGeometry x="-1" relative="1" as="geometry">
            <mxPoint x="165" y="300" as="targetPoint" />
            <Array as="points">
              <mxPoint x="165" y="300" />
              <mxPoint x="363" y="300" />
            </Array>
          </mxGeometry>
        </mxCell>
        <mxCell id="LeR2Eh71gVFdpT3h_GI2-35" value="Регистрация" style="rounded=1;whiteSpace=wrap;html=1;arcSize=40;fontColor=#000000;fillColor=#ffffc0;strokeColor=#ff0000;" vertex="1" parent="1">
          <mxGeometry x="330" y="236.25" width="120" height="22.5" as="geometry" />
        </mxCell>
        <mxCell id="LeR2Eh71gVFdpT3h_GI2-36" value="" style="edgeStyle=orthogonalEdgeStyle;html=1;verticalAlign=bottom;endArrow=open;endSize=8;strokeColor=#ff0000;rounded=0;" edge="1" source="LeR2Eh71gVFdpT3h_GI2-35" parent="1" target="LeR2Eh71gVFdpT3h_GI2-40">
          <mxGeometry relative="1" as="geometry">
            <mxPoint x="390" y="360" as="targetPoint" />
            <Array as="points">
              <mxPoint x="620" y="248" />
            </Array>
          </mxGeometry>
        </mxCell>
        <mxCell id="LeR2Eh71gVFdpT3h_GI2-40" value="Регистрация клиента" style="rounded=1;whiteSpace=wrap;html=1;arcSize=40;fontColor=#000000;fillColor=#ffffc0;strokeColor=#ff0000;" vertex="1" parent="1">
          <mxGeometry x="560" y="267.5" width="120" height="22.5" as="geometry" />
        </mxCell>
        <mxCell id="LeR2Eh71gVFdpT3h_GI2-41" value="Выбор модели" style="rounded=1;whiteSpace=wrap;html=1;arcSize=40;fontColor=#000000;fillColor=#ffffc0;strokeColor=#ff0000;" vertex="1" parent="1">
          <mxGeometry x="325" y="350" width="120" height="25" as="geometry" />
        </mxCell>
        <mxCell id="LeR2Eh71gVFdpT3h_GI2-42" value="" style="edgeStyle=orthogonalEdgeStyle;html=1;verticalAlign=bottom;endArrow=open;endSize=8;strokeColor=#ff0000;rounded=0;entryX=0.5;entryY=0;entryDx=0;entryDy=0;" edge="1" source="LeR2Eh71gVFdpT3h_GI2-41" parent="1" target="LeR2Eh71gVFdpT3h_GI2-43">
          <mxGeometry relative="1" as="geometry">
            <mxPoint x="170" y="410" as="targetPoint" />
            <Array as="points">
              <mxPoint x="385" y="390" />
              <mxPoint x="170" y="390" />
            </Array>
          </mxGeometry>
        </mxCell>
        <mxCell id="LeR2Eh71gVFdpT3h_GI2-43" value="" style="rhombus;whiteSpace=wrap;html=1;fontColor=#000000;fillColor=#ffffc0;strokeColor=#ff0000;" vertex="1" parent="1">
          <mxGeometry x="130" y="400" width="80" height="40" as="geometry" />
        </mxCell>
        <mxCell id="LeR2Eh71gVFdpT3h_GI2-44" value="" style="edgeStyle=orthogonalEdgeStyle;html=1;align=left;verticalAlign=bottom;endArrow=open;endSize=8;strokeColor=#ff0000;rounded=0;entryX=0.5;entryY=0;entryDx=0;entryDy=0;" edge="1" source="LeR2Eh71gVFdpT3h_GI2-43" parent="1" target="LeR2Eh71gVFdpT3h_GI2-47">
          <mxGeometry x="-1" relative="1" as="geometry">
            <mxPoint x="310" y="440" as="targetPoint" />
            <Array as="points">
              <mxPoint x="385" y="420" />
            </Array>
          </mxGeometry>
        </mxCell>
        <mxCell id="LeR2Eh71gVFdpT3h_GI2-45" value="" style="edgeStyle=orthogonalEdgeStyle;html=1;align=left;verticalAlign=top;endArrow=open;endSize=8;strokeColor=#ff0000;rounded=0;entryX=0.25;entryY=0.5;entryDx=0;entryDy=0;entryPerimeter=0;" edge="1" source="LeR2Eh71gVFdpT3h_GI2-43" parent="1" target="LeR2Eh71gVFdpT3h_GI2-49">
          <mxGeometry x="-1" relative="1" as="geometry">
            <mxPoint x="170" y="520" as="targetPoint" />
          </mxGeometry>
        </mxCell>
        <mxCell id="LeR2Eh71gVFdpT3h_GI2-47" value="Внесение корректировок в комплекцию" style="rounded=1;whiteSpace=wrap;html=1;arcSize=40;fontColor=#000000;fillColor=#ffffc0;strokeColor=#ff0000;" vertex="1" parent="1">
          <mxGeometry x="325" y="440" width="120" height="50" as="geometry" />
        </mxCell>
        <mxCell id="LeR2Eh71gVFdpT3h_GI2-48" value="" style="edgeStyle=orthogonalEdgeStyle;html=1;verticalAlign=bottom;endArrow=open;endSize=8;strokeColor=#ff0000;rounded=0;entryX=0.75;entryY=0.5;entryDx=0;entryDy=0;entryPerimeter=0;" edge="1" source="LeR2Eh71gVFdpT3h_GI2-47" parent="1" target="LeR2Eh71gVFdpT3h_GI2-49">
          <mxGeometry relative="1" as="geometry">
            <mxPoint x="385" y="560" as="targetPoint" />
            <Array as="points">
              <mxPoint x="385" y="510" />
              <mxPoint x="195" y="510" />
            </Array>
          </mxGeometry>
        </mxCell>
        <mxCell id="LeR2Eh71gVFdpT3h_GI2-49" value="" style="shape=line;html=1;strokeWidth=6;strokeColor=#ff0000;" vertex="1" parent="1">
          <mxGeometry x="120" y="560" width="100" height="10" as="geometry" />
        </mxCell>
        <mxCell id="LeR2Eh71gVFdpT3h_GI2-50" value="" style="edgeStyle=orthogonalEdgeStyle;html=1;verticalAlign=bottom;endArrow=open;endSize=8;strokeColor=#ff0000;rounded=0;entryX=0.5;entryY=0;entryDx=0;entryDy=0;" edge="1" source="LeR2Eh71gVFdpT3h_GI2-49" parent="1" target="LeR2Eh71gVFdpT3h_GI2-55">
          <mxGeometry relative="1" as="geometry">
            <mxPoint x="170" y="620" as="targetPoint" />
          </mxGeometry>
        </mxCell>
        <mxCell id="LeR2Eh71gVFdpT3h_GI2-51" value="" style="shape=line;html=1;strokeWidth=6;strokeColor=#ff0000;" vertex="1" parent="1">
          <mxGeometry x="340" y="310" width="90" height="10" as="geometry" />
        </mxCell>
        <mxCell id="LeR2Eh71gVFdpT3h_GI2-52" value="" style="edgeStyle=orthogonalEdgeStyle;html=1;verticalAlign=bottom;endArrow=open;endSize=8;strokeColor=#ff0000;rounded=0;entryX=0.5;entryY=0;entryDx=0;entryDy=0;" edge="1" source="LeR2Eh71gVFdpT3h_GI2-51" parent="1" target="LeR2Eh71gVFdpT3h_GI2-41">
          <mxGeometry relative="1" as="geometry">
            <mxPoint x="400" y="380" as="targetPoint" />
            <Array as="points">
              <mxPoint x="385" y="350" />
              <mxPoint x="385" y="350" />
            </Array>
          </mxGeometry>
        </mxCell>
        <mxCell id="LeR2Eh71gVFdpT3h_GI2-54" value="" style="edgeStyle=orthogonalEdgeStyle;html=1;verticalAlign=bottom;endArrow=open;endSize=8;strokeColor=#ff0000;rounded=0;exitX=0.5;exitY=1;exitDx=0;exitDy=0;entryX=0.75;entryY=0.5;entryDx=0;entryDy=0;entryPerimeter=0;" edge="1" parent="1" source="LeR2Eh71gVFdpT3h_GI2-40" target="LeR2Eh71gVFdpT3h_GI2-51">
          <mxGeometry relative="1" as="geometry">
            <mxPoint x="610" y="380" as="targetPoint" />
            <mxPoint x="440" y="360" as="sourcePoint" />
            <Array as="points">
              <mxPoint x="620" y="300" />
              <mxPoint x="408" y="300" />
            </Array>
          </mxGeometry>
        </mxCell>
        <mxCell id="LeR2Eh71gVFdpT3h_GI2-55" value="" style="rhombus;whiteSpace=wrap;html=1;fontColor=#000000;fillColor=#ffffc0;strokeColor=#ff0000;" vertex="1" parent="1">
          <mxGeometry x="130" y="620" width="80" height="40" as="geometry" />
        </mxCell>
        <mxCell id="LeR2Eh71gVFdpT3h_GI2-56" value="" style="edgeStyle=orthogonalEdgeStyle;html=1;align=left;verticalAlign=bottom;endArrow=open;endSize=8;strokeColor=#ff0000;rounded=0;entryX=0.5;entryY=0;entryDx=0;entryDy=0;" edge="1" source="LeR2Eh71gVFdpT3h_GI2-55" parent="1" target="LeR2Eh71gVFdpT3h_GI2-60">
          <mxGeometry x="-1" relative="1" as="geometry">
            <mxPoint x="310" y="650" as="targetPoint" />
          </mxGeometry>
        </mxCell>
        <mxCell id="LeR2Eh71gVFdpT3h_GI2-57" value="" style="edgeStyle=orthogonalEdgeStyle;html=1;align=left;verticalAlign=top;endArrow=open;endSize=8;strokeColor=#ff0000;rounded=0;entryX=0.25;entryY=0.5;entryDx=0;entryDy=0;entryPerimeter=0;" edge="1" source="LeR2Eh71gVFdpT3h_GI2-55" parent="1" target="LeR2Eh71gVFdpT3h_GI2-58">
          <mxGeometry x="-1" relative="1" as="geometry">
            <mxPoint x="170" y="730" as="targetPoint" />
          </mxGeometry>
        </mxCell>
        <mxCell id="LeR2Eh71gVFdpT3h_GI2-58" value="" style="shape=line;html=1;strokeWidth=6;strokeColor=#ff0000;" vertex="1" parent="1">
          <mxGeometry x="140" y="710" width="120" height="10" as="geometry" />
        </mxCell>
        <mxCell id="LeR2Eh71gVFdpT3h_GI2-59" value="" style="edgeStyle=orthogonalEdgeStyle;html=1;verticalAlign=bottom;endArrow=open;endSize=8;strokeColor=#ff0000;rounded=0;entryX=0.5;entryY=0;entryDx=0;entryDy=0;" edge="1" source="LeR2Eh71gVFdpT3h_GI2-58" parent="1" target="LeR2Eh71gVFdpT3h_GI2-62">
          <mxGeometry relative="1" as="geometry">
            <mxPoint x="210" y="900" as="targetPoint" />
          </mxGeometry>
        </mxCell>
        <mxCell id="LeR2Eh71gVFdpT3h_GI2-60" value="Оплата" style="rounded=1;whiteSpace=wrap;html=1;arcSize=40;fontColor=#000000;fillColor=#ffffc0;strokeColor=#ff0000;" vertex="1" parent="1">
          <mxGeometry x="560" y="650" width="120" height="30" as="geometry" />
        </mxCell>
        <mxCell id="LeR2Eh71gVFdpT3h_GI2-61" value="" style="edgeStyle=orthogonalEdgeStyle;html=1;verticalAlign=bottom;endArrow=open;endSize=8;strokeColor=#ff0000;rounded=0;entryX=0.75;entryY=0.5;entryDx=0;entryDy=0;entryPerimeter=0;" edge="1" source="LeR2Eh71gVFdpT3h_GI2-60" parent="1" target="LeR2Eh71gVFdpT3h_GI2-58">
          <mxGeometry relative="1" as="geometry">
            <mxPoint x="620" y="770" as="targetPoint" />
            <Array as="points">
              <mxPoint x="620" y="690" />
              <mxPoint x="230" y="690" />
            </Array>
          </mxGeometry>
        </mxCell>
        <mxCell id="LeR2Eh71gVFdpT3h_GI2-62" value="Выйти из приложения" style="rounded=1;whiteSpace=wrap;html=1;arcSize=40;fontColor=#000000;fillColor=#ffffc0;strokeColor=#ff0000;" vertex="1" parent="1">
          <mxGeometry x="140" y="760" width="120" height="40" as="geometry" />
        </mxCell>
        <mxCell id="LeR2Eh71gVFdpT3h_GI2-63" value="" style="edgeStyle=orthogonalEdgeStyle;html=1;verticalAlign=bottom;endArrow=open;endSize=8;strokeColor=#ff0000;rounded=0;entryX=0.5;entryY=0;entryDx=0;entryDy=0;" edge="1" source="LeR2Eh71gVFdpT3h_GI2-62" parent="1" target="LeR2Eh71gVFdpT3h_GI2-64">
          <mxGeometry relative="1" as="geometry">
            <mxPoint x="200" y="940" as="targetPoint" />
            <Array as="points" />
          </mxGeometry>
        </mxCell>
        <mxCell id="LeR2Eh71gVFdpT3h_GI2-64" value="" style="ellipse;html=1;shape=endState;fillColor=#000000;strokeColor=#ff0000;" vertex="1" parent="1">
          <mxGeometry x="185" y="840" width="30" height="30" as="geometry" />
        </mxCell>
      </root>
    </mxGraphModel>
  </diagram>
</mxfile>
